<?xml version="1.0" encoding="UTF-8" standalone="no"?>
<svg
   xmlns:dc="http://purl.org/dc/elements/1.1/"
   xmlns:cc="http://creativecommons.org/ns#"
   xmlns:rdf="http://www.w3.org/1999/02/22-rdf-syntax-ns#"
   xmlns:svg="http://www.w3.org/2000/svg"
   xmlns="http://www.w3.org/2000/svg"
   xmlns:sodipodi="http://sodipodi.sourceforge.net/DTD/sodipodi-0.dtd"
   xmlns:inkscape="http://www.inkscape.org/namespaces/inkscape"
   width="190.04243mm"
   height="64.804245mm"
   viewBox="0 0 190.04243 64.804245"
   version="1.1"
   id="svg8"
   inkscape:version="1.0.2 (e86c870879, 2021-01-15)"
   sodipodi:docname="tdm.svg">
  <defs
     id="defs2" />
  <sodipodi:namedview
     id="base"
     pagecolor="#ffffff"
     bordercolor="#666666"
     borderopacity="1.0"
     inkscape:pageopacity="0.0"
     inkscape:pageshadow="2"
     inkscape:zoom="1.4"
     inkscape:cx="349.54707"
     inkscape:cy="82.017196"
     inkscape:document-units="mm"
     inkscape:current-layer="layer1"
     inkscape:document-rotation="0"
     showgrid="true"
     fit-margin-top="0"
     fit-margin-left="0"
     fit-margin-right="0"
     fit-margin-bottom="0"
     inkscape:window-width="1916"
     inkscape:window-height="1041"
     inkscape:window-x="0"
     inkscape:window-y="18"
     inkscape:window-maximized="0">
    <inkscape:grid
       type="xygrid"
       id="grid945"
       originx="-13.349005"
       originy="-58.43057" />
  </sodipodi:namedview>
  <metadata
     id="metadata5">
    <rdf:RDF>
      <cc:Work
         rdf:about="">
        <dc:format>image/svg+xml</dc:format>
        <dc:type
           rdf:resource="http://purl.org/dc/dcmitype/StillImage" />
        <dc:title></dc:title>
      </cc:Work>
    </rdf:RDF>
  </metadata>
  <g
     inkscape:label="Layer 1"
     inkscape:groupmode="layer"
     id="layer1"
     transform="translate(-13.349005,-58.430569)">
    <rect
       style="opacity:0.77;fill:none;stroke:#22241c;stroke-width:2.15594;stroke-miterlimit:4;stroke-dasharray:none"
       id="rect833"
       width="185.8705"
       height="30.64275"
       x="14.426975"
       y="79.351105" />
    <rect
       style="opacity:0.77;fill:#aade87;fill-opacity:1;stroke:#22241c;stroke-width:0;stroke-miterlimit:4;stroke-dasharray:none"
       id="rect837"
       width="23.233812"
       height="30.642748"
       x="14.426975"
       y="79.351105" />
    <rect
       style="opacity:0.77;fill:#5fd35f;fill-opacity:1;stroke:#22241c;stroke-width:0;stroke-miterlimit:4;stroke-dasharray:none"
       id="rect837-3"
       width="23.233812"
       height="30.642748"
       x="37.660789"
       y="79.351105" />
    <rect
       style="opacity:0.77;fill:#37c837;fill-opacity:1;stroke:#22241c;stroke-width:0;stroke-miterlimit:4;stroke-dasharray:none"
       id="rect837-6"
       width="23.233812"
       height="30.642748"
       x="60.8946"
       y="79.351105" />
    <rect
       style="opacity:0.77;fill:#2ca02c;fill-opacity:1;stroke:#22241c;stroke-width:0;stroke-miterlimit:4;stroke-dasharray:none"
       id="rect837-7"
       width="23.233812"
       height="30.642748"
       x="84.12841"
       y="79.351105" />
    <rect
       style="opacity:0.77;fill:#aade87;fill-opacity:1;stroke:#22241c;stroke-width:0;stroke-miterlimit:4;stroke-dasharray:none"
       id="rect837-5"
       width="23.233812"
       height="30.642748"
       x="107.36222"
       y="79.351105" />
    <rect
       style="opacity:0.77;fill:#5fd35f;fill-opacity:1;stroke:#22241c;stroke-width:0;stroke-miterlimit:4;stroke-dasharray:none"
       id="rect837-35"
       width="23.233812"
       height="30.642748"
       x="130.59604"
       y="79.351105" />
    <rect
       style="opacity:0.77;fill:#37c837;fill-opacity:1;stroke:#22241c;stroke-width:0;stroke-miterlimit:4;stroke-dasharray:none"
       id="rect837-62"
       width="23.233812"
       height="30.642748"
       x="153.82985"
       y="79.351105" />
    <rect
       style="opacity:0.77;fill:#2ca02c;fill-opacity:1;stroke:#22241c;stroke-width:0;stroke-miterlimit:4;stroke-dasharray:none"
       id="rect837-9"
       width="23.233812"
       height="30.642748"
       x="177.06366"
       y="79.351105" />
    <text
       xml:space="preserve"
       style="font-style:normal;font-weight:normal;font-size:10.5833px;line-height:1.25;font-family:sans-serif;fill:#000000;fill-opacity:1;stroke:none;stroke-width:0.264583"
       x="23.23028"
       y="97.715263"
       id="text915"><tspan
         sodipodi:role="line"
         id="tspan913"
         x="23.23028"
         y="97.715263"
         style="stroke-width:0.264583">1</tspan></text>
    <text
       xml:space="preserve"
       style="font-style:normal;font-weight:normal;font-size:10.5833px;line-height:1.25;font-family:sans-serif;fill:#000000;fill-opacity:1;stroke:none;stroke-width:0.264583"
       x="46.421295"
       y="97.85479"
       id="text919"><tspan
         sodipodi:role="line"
         id="tspan917"
         x="46.421295"
         y="97.85479"
         style="stroke-width:0.264583">2</tspan></text>
    <text
       xml:space="preserve"
       style="font-style:normal;font-weight:normal;font-size:10.5833px;line-height:1.25;font-family:sans-serif;fill:#000000;fill-opacity:1;stroke:none;stroke-width:0.264583"
       x="69.890472"
       y="97.988419"
       id="text923"><tspan
         sodipodi:role="line"
         id="tspan921"
         x="69.890472"
         y="97.988419"
         style="stroke-width:0.264583">3</tspan></text>
    <text
       xml:space="preserve"
       style="font-style:normal;font-weight:normal;font-size:10.5833px;line-height:1.25;font-family:sans-serif;fill:#000000;fill-opacity:1;stroke:none;stroke-width:0.264583"
       x="93.90406"
       y="97.699387"
       id="text927"><tspan
         sodipodi:role="line"
         id="tspan925"
         x="93.90406"
         y="97.699387"
         style="stroke-width:0.264583">4</tspan></text>
    <text
       xml:space="preserve"
       style="font-style:normal;font-weight:normal;font-size:10.5833px;line-height:1.25;font-family:sans-serif;fill:#000000;fill-opacity:1;stroke:none;stroke-width:0.264583"
       x="116.81126"
       y="97.715263"
       id="text931"><tspan
         sodipodi:role="line"
         id="tspan929"
         x="116.81126"
         y="97.715263"
         style="stroke-width:0.264583">1</tspan></text>
    <text
       xml:space="preserve"
       style="font-style:normal;font-weight:normal;font-size:10.5833px;line-height:1.25;font-family:sans-serif;fill:#000000;fill-opacity:1;stroke:none;stroke-width:0.264583"
       x="140.38223"
       y="97.85479"
       id="text935"><tspan
         sodipodi:role="line"
         id="tspan933"
         x="140.38223"
         y="97.85479"
         style="stroke-width:0.264583">2</tspan></text>
    <text
       xml:space="preserve"
       style="font-style:normal;font-weight:normal;font-size:10.5833px;line-height:1.25;font-family:sans-serif;fill:#000000;fill-opacity:1;stroke:none;stroke-width:0.264583"
       x="161.72302"
       y="97.85479"
       id="text939"><tspan
         sodipodi:role="line"
         id="tspan937"
         x="161.72302"
         y="97.85479"
         style="stroke-width:0.264583">3</tspan></text>
    <text
       xml:space="preserve"
       style="font-style:normal;font-weight:normal;font-size:10.5833px;line-height:1.25;font-family:sans-serif;fill:#000000;fill-opacity:1;stroke:none;stroke-width:0.264583"
       x="185.04913"
       y="97.715263"
       id="text943"><tspan
         sodipodi:role="line"
         id="tspan941"
         x="185.04913"
         y="97.715263"
         style="stroke-width:0.264583">4</tspan></text>
    <path
       style="fill:none;stroke:#000000;stroke-width:0.264583px;stroke-linecap:butt;stroke-linejoin:miter;stroke-opacity:1"
       d="m 39.6875,113.77083 c -0.06325,0.31426 -0.950955,3.05074 -0.258324,3.49101 0.489286,0.31101 1.901494,-0.071 2.371902,-0.18899 1.141767,-0.28633 3.446749,0 4.698569,0 3.23872,0 6.477442,0 9.716161,0 0.922745,0 3.491543,0.29221 4.135025,0 0.295317,-0.1341 -0.02008,-0.64257 0.09955,-0.86164 0.207865,-0.38067 0.371814,-0.74665 0.562171,-1.09827 0.131215,-0.24238 -0.06859,-0.087 -0.09014,-0.24819 -0.04844,-0.36213 -0.0455,-0.72928 -0.06824,-1.09392"
       id="path967" />
    <text
       xml:space="preserve"
       style="font-style:normal;font-weight:normal;font-size:4.12411px;line-height:1.25;font-family:sans-serif;fill:#000000;fill-opacity:1;stroke:none;stroke-width:0.103103"
       x="46.748699"
       y="108.48609"
       id="text971"
       transform="scale(0.88079403,1.1353392)"><tspan
         sodipodi:role="line"
         id="tspan969"
         x="46.748699"
         y="108.48609"
         style="stroke-width:0.103103">Time Slot</tspan></text>
    <path
       style="fill:none;stroke:#000000;stroke-width:0.264583px;stroke-linecap:butt;stroke-linejoin:miter;stroke-opacity:1"
       d="m 108.47917,76.729166 c -2.4412,-1.687883 -0.46393,-1.578941 -0.99516,-2.907006 -0.0965,-0.24121 -0.45634,-0.309208 -0.5511,-0.551098 -0.17277,-0.441003 -0.16124,-1.124509 -0.37323,-1.543696 -0.0759,-0.150177 -0.32093,-0.192614 -0.35699,-0.356994 -0.01,-0.04477 0.0917,0 0.1375,0 0.30685,0 0.61369,0 0.92054,0 0.2513,0 0.88689,-0.113903 1.11541,0 0.23511,0.117189 0.072,0.341106 0.39374,0.341106 2.18427,0 4.41595,-0.149786 6.59131,0 8.94343,0.615802 18.51766,0.212254 27.54041,0.212254 2.719,0 5.44091,0.0526 8.12649,-0.188989 1.39507,-0.1255 2.81551,0.03741 4.1797,0.188989 1.34613,0.149569 2.80408,0 4.15773,0 2.66501,0 5.33001,0 7.99502,0 3.28274,0 6.56549,0 9.84823,0 1.3492,0 3.04905,0.284834 4.37421,0 0.67193,-0.144431 1.15525,-0.188989 1.8406,-0.188989 1.79027,0 3.55006,-0.0064 5.30869,0.188989 1.29898,0.14433 2.70078,0 4.00762,0 3.50614,0 7.01227,0 10.5184,0 0.0358,0 -0.73518,0.368422 -0.89528,0.789453 -0.28451,0.748244 -0.0476,1.670016 -0.34374,2.374424 -0.003,0.0079 -0.33415,0.329702 -0.34127,0.341278 -0.47768,0.776581 0.49979,0.285464 -0.59467,1.300279"
       id="path973" />
    <text
       xml:space="preserve"
       style="font-style:normal;font-weight:normal;font-size:10.5833px;line-height:1.25;font-family:sans-serif;fill:#000000;fill-opacity:1;stroke:none;stroke-width:0.264583"
       x="145.52083"
       y="66.145836"
       id="text977"><tspan
         sodipodi:role="line"
         id="tspan975"
         x="145.52083"
         y="66.145836"
         style="stroke-width:0.264583">Frame</tspan></text>
  </g>
</svg>
