<?xml version="1.0" encoding="UTF-8" standalone="no"?>
<svg
   xmlns:dc="http://purl.org/dc/elements/1.1/"
   xmlns:cc="http://creativecommons.org/ns#"
   xmlns:rdf="http://www.w3.org/1999/02/22-rdf-syntax-ns#"
   xmlns:svg="http://www.w3.org/2000/svg"
   xmlns="http://www.w3.org/2000/svg"
   xmlns:sodipodi="http://sodipodi.sourceforge.net/DTD/sodipodi-0.dtd"
   xmlns:inkscape="http://www.inkscape.org/namespaces/inkscape"
   width="102.86069mm"
   height="19.573669mm"
   viewBox="0 0 102.86069 19.573669"
   version="1.1"
   id="svg1189"
   inkscape:version="1.0.2 (e86c870879, 2021-01-15)"
   sodipodi:docname="tput1.svg">
  <defs
     id="defs1183" />
  <sodipodi:namedview
     id="base"
     pagecolor="#ffffff"
     bordercolor="#666666"
     borderopacity="1.0"
     inkscape:pageopacity="0.0"
     inkscape:pageshadow="2"
     inkscape:zoom="0.98994949"
     inkscape:cx="286.18918"
     inkscape:cy="71.063625"
     inkscape:document-units="mm"
     inkscape:current-layer="layer1"
     inkscape:document-rotation="0"
     showgrid="false"
     inkscape:window-width="956"
     inkscape:window-height="1041"
     inkscape:window-x="960"
     inkscape:window-y="18"
     inkscape:window-maximized="0" />
  <metadata
     id="metadata1186">
    <rdf:RDF>
      <cc:Work
         rdf:about="">
        <dc:format>image/svg+xml</dc:format>
        <dc:type
           rdf:resource="http://purl.org/dc/dcmitype/StillImage" />
        <dc:title></dc:title>
      </cc:Work>
    </rdf:RDF>
  </metadata>
  <g
     inkscape:label="Layer 1"
     inkscape:groupmode="layer"
     id="layer1"
     transform="translate(-34.500236,-27.58265)">
    <path
       id="path23563"
       stroke="#555753"
       stroke-width="0.79375"
       fill="#ffffff"
       d="m 34.897111,43.074408 0.529167,-2.390643 c 0,-0.281807 0.395949,-0.508687 0.887783,-0.508687 h 12.038541 c 0.491834,0 0.887783,0.226874 0.887783,0.508687 l 0.529167,2.390643 c 0,0.281808 -0.395949,0.508688 -0.887783,0.508688 H 35.784894 c -0.491834,0 -0.887783,-0.226875 -0.887783,-0.508688 z" />
    <path
       id="path23502"
       stroke="#555753"
       stroke-width="0.79375"
       fill="#ffffff"
       d="m 34.897111,46.167387 v -2.782358 c 0,-0.328004 0.395949,-0.592058 0.887783,-0.592058 h 13.096875 c 0.491834,0 0.887783,0.264054 0.887783,0.592058 v 2.782358 c 0,0.328004 -0.395949,0.592058 -0.887783,0.592058 H 35.784894 c -0.491834,0 -0.887783,-0.264054 -0.887783,-0.592058 z" />
    <path
       id="path23504"
       style="color:#000000;stroke-width:0.0605297"
       d="m 48.524493,44.057055 c 0,0.208237 -0.176809,0.377049 -0.394911,0.377049 -0.218103,0 -0.394912,-0.168812 -0.394912,-0.377049 0,-0.208238 0.176809,-0.377049 0.394912,-0.377049 0.218102,0 0.394911,0.168811 0.394911,0.377049 z"
       fill-rule="evenodd"
       fill="#555753" />
    <path
       id="path23506"
       fill="#555753"
       d="m 35.717319,43.741158 c -0.02117,0 -0.04003,0.03479 -0.04792,0.08268 -0.0026,0.01596 -0.0032,0.03127 -0.0032,0.04961 -5.3e-5,0.0026 0,0.0057 0,0.0083 v 0.768932 c 0,0.07336 0.02275,0.132292 0.05112,0.132292 h 3.312583 c 0.02834,0 0.05112,-0.05893 0.05112,-0.132292 v -0.768932 c 0,-0.01834 0,-0.04191 -0.0032,-0.05788 -0.0079,-0.0479 -0.02664,-0.08268 -0.04792,-0.08268 l -3.312584,1.3e-5 z"
       style="stroke-width:0.264583" />
    <path
       id="path23508"
       fill="#555753"
       d="m 39.633153,43.690887 c -0.02117,0 -0.04003,0.03479 -0.04792,0.08268 -0.0026,0.01595 -0.0032,0.03127 -0.0032,0.04961 -5.3e-5,0.0026 0,0.0057 0,0.0083 v 0.768932 c 0,0.07336 0.02275,0.132292 0.05112,0.132292 h 3.312583 c 0.02834,0 0.05112,-0.05893 0.05112,-0.132292 v -0.768932 c 0,-0.01834 0,-0.04191 -0.0032,-0.05788 -0.0079,-0.04789 -0.02664,-0.08268 -0.04792,-0.08268 l -3.312583,1.3e-5 z"
       style="stroke-width:0.264583" />
    <path
       id="path23510"
       style="color:#000000;stroke-width:0.0605297"
       d="m 47.228035,44.04118 c 0,0.208237 -0.176809,0.377049 -0.394912,0.377049 -0.218102,0 -0.394911,-0.168812 -0.394911,-0.377049 0,-0.208238 0.176809,-0.377049 0.394911,-0.377049 0.218103,0 0.394912,0.168811 0.394912,0.377049 z"
       fill-rule="evenodd"
       fill="#555753" />
    <path
       id="path23567"
       stroke="#555753"
       stroke-width="0.79375"
       fill="#ffffff"
       d="m 34.897111,37.782742 0.529167,-2.390643 c 0,-0.281808 0.395949,-0.508688 0.887783,-0.508688 h 12.038541 c 0.491834,0 0.887783,0.226875 0.887783,0.508688 l 0.529167,2.390643 c 0,0.281807 -0.395949,0.508687 -0.887783,0.508687 H 35.784894 c -0.491834,0 -0.887783,-0.226874 -0.887783,-0.508687 z" />
    <path
       id="path23569"
       stroke="#555753"
       stroke-width="0.79375"
       fill="#ffffff"
       d="m 34.897111,40.875721 v -2.782359 c 0,-0.328004 0.395949,-0.592058 0.887783,-0.592058 h 13.096875 c 0.491834,0 0.887783,0.264054 0.887783,0.592058 v 2.782359 c 0,0.328004 -0.395949,0.592058 -0.887783,0.592058 H 35.784894 c -0.491834,0 -0.887783,-0.264054 -0.887783,-0.592058 z" />
    <path
       id="path23571"
       style="color:#000000;stroke-width:0.0605297"
       d="m 48.524493,38.765389 c 0,0.208237 -0.176809,0.377049 -0.394911,0.377049 -0.218103,0 -0.394912,-0.168812 -0.394912,-0.377049 0,-0.208238 0.176809,-0.377049 0.394912,-0.377049 0.218102,0 0.394911,0.168811 0.394911,0.377049 z"
       fill-rule="evenodd"
       fill="#555753" />
    <path
       id="path23573"
       fill="#555753"
       d="m 35.717319,38.449492 c -0.02117,0 -0.04003,0.03479 -0.04792,0.08268 -0.0026,0.01595 -0.0032,0.03127 -0.0032,0.04961 -5.3e-5,0.0026 0,0.0057 0,0.0083 v 0.768932 c 0,0.07336 0.02275,0.132292 0.05112,0.132292 h 3.312583 c 0.02834,0 0.05112,-0.05893 0.05112,-0.132292 v -0.768932 c 0,-0.01834 0,-0.04191 -0.0032,-0.05788 -0.0079,-0.0479 -0.02664,-0.08268 -0.04792,-0.08268 l -3.312584,1.4e-5 z"
       style="stroke-width:0.264583" />
    <path
       id="path23575"
       fill="#555753"
       d="m 39.633153,38.399221 c -0.02117,0 -0.04003,0.03479 -0.04792,0.08268 -0.0026,0.01595 -0.0032,0.03127 -0.0032,0.04961 -5.3e-5,0.0026 0,0.0057 0,0.0083 v 0.768932 c 0,0.07336 0.02275,0.132292 0.05112,0.132292 h 3.312583 c 0.02834,0 0.05112,-0.05893 0.05112,-0.132292 v -0.768932 c 0,-0.01834 0,-0.04191 -0.0032,-0.05788 -0.0079,-0.04789 -0.02664,-0.08268 -0.04792,-0.08268 l -3.312583,1.4e-5 z"
       style="stroke-width:0.264583" />
    <path
       id="path23577"
       style="color:#000000;stroke-width:0.0605297"
       d="m 47.228035,38.749514 c 0,0.208237 -0.176809,0.377049 -0.394912,0.377049 -0.218102,0 -0.394911,-0.168812 -0.394911,-0.377049 0,-0.208238 0.176809,-0.377049 0.394911,-0.377049 0.218103,0 0.394912,0.168811 0.394912,0.377049 z"
       fill-rule="evenodd"
       fill="#555753" />
    <g
       id="g5545"
       transform="matrix(0.26458333,0,0,0.26458333,-179.97321,66.704988)">
      <path
         id="path5224"
         stroke="#555753"
         stroke-width="3"
         fill="#ffffff"
         d="m 975.86971,-95.005578 4,-10.088002 c 0,-1.1892 1.2569,-2.1465 2.8182,-2.1465 h 33.57399 c 1.5612,0 2.8181,0.95733 2.8181,2.1465 l 4,10.088002 c 0,1.1892 -1.2569,2.1465 -2.8181,2.1465 h -41.57399 c -1.5613,0 -2.8182,-0.95733 -2.8182,-2.1465 z" />
      <path
         id="path5226"
         stroke="#555753"
         stroke-width="3"
         fill="#ffffff"
         d="m 975.86971,-81.676578 v -13.244 c 0,-1.5613 1.2569,-2.8182 2.8182,-2.8182 h 41.57399 c 1.5612,0 2.8181,1.2569 2.8181,2.8182 v 13.244 c 0,1.5613 -1.2569,2.8182 -2.8181,2.8182 h -41.57399 c -1.5613,0 -2.8182,-1.2569 -2.8182,-2.8182 z" />
      <path
         id="path5228"
         style="color:#000000;stroke-width:0.228774"
         d="m 1019.4348,-93.069639 c 0,0.78704 -0.6683,1.425068 -1.4926,1.425068 -0.8243,0 -1.4926,-0.638028 -1.4926,-1.425068 0,-0.787039 0.6683,-1.425067 1.4926,-1.425067 0.8243,0 1.4926,0.638028 1.4926,1.425067 z"
         fill-rule="evenodd"
         fill="#555753" />
      <path
         id="path5230"
         fill="#555753"
         d="m 982.97971,-89.313578 c -0.2249,0 -0.4115,0.16793 -0.4115,0.39275 v 1.6084 h -1.5523 c -0.27731,0 -0.505,0.2277 -0.505,0.50498 v 2.9176 c 0,0.27728 0.22769,0.50497 0.505,0.50497 h 8.4162 c 0.2773,0 0.505,-0.22769 0.505,-0.50497 v -2.9176 c 0,-0.27728 -0.2277,-0.50498 -0.505,-0.50498 h -1.4588 v -1.6084 c 0,-0.22482 -0.1866,-0.39275 -0.4115,-0.39275 z" />
      <path
         id="path5232"
         fill="#555753"
         d="m 994.97971,-89.313578 c -0.2249,0 -0.4115,0.16793 -0.4115,0.39275 v 1.6084 h -1.5523 c -0.2773,0 -0.505,0.2277 -0.505,0.50498 v 2.9176 c 0,0.27728 0.2277,0.50497 0.505,0.50497 h 8.41619 c 0.2773,0 0.505,-0.22769 0.505,-0.50497 v -2.9176 c 0,-0.27728 -0.2277,-0.50498 -0.505,-0.50498 h -1.45879 v -1.6084 c 0,-0.22482 -0.1866,-0.39275 -0.4115,-0.39275 z" />
      <path
         id="path5234"
         fill="#555753"
         d="m 1006.9797,-89.313578 c -0.2249,0 -0.4115,0.16793 -0.4115,0.39275 v 1.6084 h -1.5523 c -0.2773,0 -0.505,0.2277 -0.505,0.50498 v 2.9176 c 0,0.27728 0.2277,0.50497 0.505,0.50497 h 8.4162 c 0.2773,0 0.505,-0.22769 0.505,-0.50497 v -2.9176 c 0,-0.27728 -0.2277,-0.50498 -0.505,-0.50498 h -1.4588 v -1.6084 c 0,-0.22482 -0.1866,-0.39275 -0.4115,-0.39275 z" />
      <path
         id="path23554-6-7"
         style="color:#000000;text-indent:0;text-transform:none"
         fill="#555753"
         d="m 1046.083,-95.005578 h 0.559 -23.562 v 2 h 25.562 l 5.0001,-2 h -7.5591 l 5.5591,2 h 25.562 v -2 h -23.562 v 0 z m -23.003,5 v 2 h 54.125 v -2 z"
         sodipodi:nodetypes="cccccccccccccccccc" />
    </g>
    <g
       id="g3777"
       transform="matrix(0.26458333,0,0,0.26458333,225.22049,-109.70771)">
      <path
         id="path4622"
         fill="#555753"
         d="m -351.01,554.1 c -2.1616,0 -3.9029,1.7413 -3.9029,3.9029 v 19.186 c 0,0.4127 0.0577,0.81123 0.17541,1.184 h -4.1879 c -1.8145,0 -3.267,0.77474 -3.267,1.7322 0,0.95744 1.4525,1.7322 3.267,1.7322 h 16.094 c 1.8145,0 3.267,-0.77474 3.267,-1.7322 0,-0.95744 -1.4525,-1.7322 -3.267,-1.7322 h -3.6836 c 0.11768,-0.3728 0.17541,-0.77133 0.17541,-1.184 v -19.186 c 0,-2.1616 -1.7413,-3.9029 -3.9029,-3.9029 h -0.76742 z" />
      <rect
         id="rect4624"
         ry="3.9017999"
         height="26.978001"
         width="35.198002"
         stroke="#555753"
         y="546.78998"
         x="-368.48001"
         stroke-width="2.4287"
         fill="#ffffff" />
      <rect
         id="rect4626"
         ry="1.6711"
         height="15.725"
         width="29.035999"
         stroke="#555753"
         y="549.90997"
         x="-365.81"
         stroke-width="1.6841"
         fill="#555753" />
      <rect
         id="rect4628"
         transform="rotate(-90)"
         ry="0.86824"
         height="3.1454999"
         width="3.8752"
         y="-352.91"
         x="-571.83002"
         fill="#555753" />
      <rect
         id="rect4630"
         ry="0.45796999"
         height="2.1048999"
         width="26.834999"
         y="551.56"
         x="-364.29999"
         fill="#ffffff" />
      <rect
         id="rect4632"
         ry="6.2251"
         height="43.041"
         width="24.663"
         stroke="#555753"
         y="545.97998"
         x="-399.29001"
         stroke-width="2.5679"
         fill="#ffffff" />
      <rect
         id="rect4634"
         ry="1.3671"
         transform="rotate(-90)"
         height="4.9527998"
         width="6.1016998"
         y="-382.51999"
         x="-583.22998"
         fill="#555753" />
      <rect
         id="rect4636"
         ry="0.39735001"
         height="1.8263"
         width="17.499001"
         y="553.16998"
         x="-395.35001"
         fill="#555753" />
      <rect
         id="rect4638"
         ry="0.39735001"
         height="1.8263"
         width="17.499001"
         y="559.25"
         x="-395.35001"
         fill="#555753" />
    </g>
    <path
       id="path23554-6"
       style="color:#000000;text-indent:0;text-transform:none;stroke-width:0.264583"
       fill="#555753"
       d="m 55.855762,41.751492 h 0.147902 -6.234112 v 0.529166 h 6.763279 l 1.322943,-0.529166 h -2.000012 l 1.470845,0.529166 h 6.763279 v -0.529166 h -6.234112 v 0 z m -6.08621,1.322916 v 0.529167 h 14.320572 v -0.529167 z"
       sodipodi:nodetypes="cccccccccccccccccc" />
    <path
       id="path23554-6-3"
       style="color:#000000;text-indent:0;text-transform:none;stroke-width:0.264583"
       fill="#555753"
       d="m 70.176096,41.751492 h 0.147902 -6.234112 v 0.529166 h 6.763279 l 1.322943,-0.529166 h -2.000012 l 1.470845,0.529166 h 6.763279 v -0.529166 h -6.234112 v 0 z m -6.08621,1.322916 v 0.529167 h 14.320572 v -0.529167 z"
       sodipodi:nodetypes="cccccccccccccccccc" />
    <path
       id="path23554-6-7-3"
       style="color:#000000;text-indent:0;text-transform:none;stroke-width:0.264583"
       fill="#555753"
       d="m 110.84467,41.57 h 0.14791 -6.23412 v 0.529166 h 6.76328 L 112.84469,41.57 h -2.00002 l 1.47085,0.529166 h 6.76328 V 41.57 h -6.23411 v 0 z m -6.08621,1.322916 v 0.529167 h 14.32058 v -0.529167 z"
       sodipodi:nodetypes="cccccccccccccccccc" />
    <text
       xml:space="preserve"
       style="font-style:normal;font-variant:normal;font-weight:normal;font-stretch:normal;font-size:10.5833px;line-height:1.25;font-family:sans-serif;-inkscape-font-specification:'sans-serif, Normal';font-variant-ligatures:normal;font-variant-caps:normal;font-variant-numeric:normal;font-variant-east-asian:normal;letter-spacing:0px;stroke-width:0.264583"
       x="60.78849"
       y="35.297916"
       id="text2014"><tspan
         sodipodi:role="line"
         id="tspan2018"
         x="60.78849"
         y="35.297916">R</tspan></text>
    <text
       xml:space="preserve"
       style="font-size:8.0762px;line-height:1.25;font-family:sans-serif;letter-spacing:0px;stroke-width:0.201905"
       x="67.505257"
       y="37.987038"
       id="text2022"><tspan
         sodipodi:role="line"
         id="tspan2020"
         x="67.505257"
         y="37.987038"
         style="stroke-width:0.201905">s</tspan></text>
    <text
       xml:space="preserve"
       style="font-style:normal;font-variant:normal;font-weight:normal;font-stretch:normal;font-size:10.5833px;line-height:1.25;font-family:sans-serif;-inkscape-font-specification:'sans-serif, Normal';font-variant-ligatures:normal;font-variant-caps:normal;font-variant-numeric:normal;font-variant-east-asian:normal;letter-spacing:0px;stroke-width:0.264583"
       x="97.786026"
       y="35.929977"
       id="text2014-6"><tspan
         sodipodi:role="line"
         id="tspan2018-2"
         x="97.786026"
         y="35.929977">R</tspan></text>
    <text
       xml:space="preserve"
       style="font-size:8.0762px;line-height:1.25;font-family:sans-serif;letter-spacing:0px;stroke-width:0.201905"
       x="105.71179"
       y="38.553047"
       id="text2022-5"><tspan
         sodipodi:role="line"
         id="tspan2020-8"
         x="105.71179"
         y="38.553047"
         style="stroke-width:0.201905">c</tspan></text>
  </g>
</svg>
